<?xml version="1.0" encoding="utf-8"?>
<!-- Generator: Adobe Illustrator 16.0.3, SVG Export Plug-In . SVG Version: 6.00 Build 0)  -->
<!DOCTYPE svg PUBLIC "-//W3C//DTD SVG 1.1//EN" "http://www.w3.org/Graphics/SVG/1.1/DTD/svg11.dtd">
<svg version="1.1" id="Layer_1" xmlns="http://www.w3.org/2000/svg" xmlns:xlink="http://www.w3.org/1999/xlink" x="0px" y="0px"
	 width="750px" height="80px" viewBox="0 0 750 80" enable-background="new 0 0 750 80" xml:space="preserve">
<g>
	<path fill="#1E1E1E" d="M524.797,50.434l13.291,4.215c-2.037,7.41-5.426,12.915-10.166,16.512
		c-4.739,3.597-10.752,5.396-18.039,5.396c-9.016,0-16.426-3.08-22.23-9.24c-5.805-6.159-8.707-14.581-8.707-25.265
		c0-11.3,2.918-20.077,8.754-26.329c5.835-6.252,13.508-9.379,23.018-9.379c8.305,0,15.053,2.455,20.239,7.364
		c3.087,2.902,5.403,7.07,6.947,12.505l-13.57,3.242c-0.804-3.521-2.478-6.299-5.024-8.337c-2.548-2.038-5.644-3.057-9.287-3.057
		c-5.033,0-9.116,1.806-12.25,5.419c-3.134,3.612-4.701,9.464-4.701,17.553c0,8.584,1.545,14.697,4.633,18.341
		c3.086,3.644,7.101,5.465,12.041,5.465c3.643,0,6.777-1.158,9.402-3.474C521.77,59.049,523.654,55.405,524.797,50.434z"/>
	<path fill="#1E1E1E" d="M551.816,41.866c0-6.916,1.033-12.721,3.103-17.414c1.544-3.458,3.651-6.562,6.321-9.31
		c2.671-2.748,5.597-4.786,8.777-6.113c4.229-1.791,9.107-2.687,14.635-2.687c10.004,0,18.009,3.103,24.014,9.31
		c6.006,6.206,9.008,14.836,9.008,25.89c0,10.961-2.979,19.537-8.938,25.728s-13.926,9.286-23.898,9.286
		c-10.097,0-18.125-3.08-24.084-9.24C554.795,61.156,551.816,52.673,551.816,41.866z M565.941,41.402
		c0,7.688,1.775,13.517,5.326,17.484s8.059,5.951,13.523,5.951c5.466,0,9.95-1.969,13.455-5.905
		c3.504-3.937,5.256-9.842,5.256-17.715c0-7.781-1.705-13.586-5.117-17.414s-7.943-5.743-13.594-5.743s-10.205,1.938-13.662,5.813
		C567.67,27.748,565.941,33.592,565.941,41.402z"/>
	<path fill="#1E1E1E" d="M633.486,75.397V8.057h13.709v55.901h34.088v11.439H633.486z"/>
	<path fill="#1E1E1E" d="M695.797,75.397V7.501h50.344v11.485h-36.635v15.053h34.088v11.439h-34.088v18.479h37.932v11.439H695.797z"
		/>
</g>
<g>
	<path fill="#2D2D2D" d="M4.261,53.583l8.476-0.741c0.401,3.397,1.335,6.183,2.802,8.36c1.466,2.177,3.743,3.937,6.831,5.28
		c3.087,1.343,6.561,2.015,10.421,2.015c3.427,0,6.453-0.509,9.078-1.528c2.624-1.019,4.577-2.416,5.859-4.191
		c1.281-1.775,1.922-3.712,1.922-5.813c0-2.13-0.618-3.99-1.853-5.581c-1.235-1.59-3.273-2.925-6.114-4.006
		c-1.822-0.71-5.851-1.813-12.088-3.312c-6.237-1.498-10.606-2.91-13.107-4.238c-3.242-1.698-5.658-3.805-7.248-6.322
		c-1.591-2.516-2.385-5.333-2.385-8.453c0-3.427,0.973-6.63,2.918-9.61c1.945-2.979,4.786-5.241,8.521-6.785
		c3.736-1.543,7.889-2.316,12.458-2.316c5.033,0,9.472,0.811,13.315,2.432c3.844,1.621,6.8,4.006,8.869,7.156
		c2.068,3.149,3.18,6.715,3.335,10.698l-8.615,0.648c-0.463-4.291-2.03-7.533-4.701-9.726c-2.671-2.192-6.616-3.288-11.833-3.288
		c-5.435,0-9.395,0.996-11.879,2.987c-2.486,1.991-3.729,4.393-3.729,7.202c0,2.439,0.88,4.446,2.64,6.021
		c1.729,1.575,6.245,3.188,13.547,4.84c7.302,1.652,12.312,3.096,15.029,4.331c3.952,1.822,6.87,4.13,8.753,6.924
		c1.883,2.795,2.825,6.014,2.825,9.656c0,3.613-1.035,7.017-3.103,10.212c-2.069,3.196-5.041,5.682-8.916,7.457
		c-3.875,1.775-8.237,2.663-13.083,2.663c-6.145,0-11.293-0.896-15.446-2.686c-4.153-1.791-7.411-4.484-9.772-8.082
		C5.627,62.19,4.384,58.122,4.261,53.583z"/>
	<path fill="#2D2D2D" d="M72.611,75.397L98.687,7.501h9.68l27.789,67.896h-10.235L118,54.834H89.609l-7.457,20.563H72.611z
		 M92.203,47.516h23.018l-7.086-18.803c-2.162-5.712-3.768-10.405-4.817-14.08c-0.865,4.354-2.084,8.677-3.659,12.968L92.203,47.516
		z"/>
	<path fill="#2D2D2D" d="M152.541,75.397V7.501h13.524l16.071,48.074c1.482,4.477,2.563,7.827,3.242,10.05
		c0.771-2.47,1.976-6.098,3.613-10.884l16.256-47.24h12.088v67.896h-8.661V18.57l-19.73,56.828h-8.105l-19.637-57.8v57.8H152.541z"
		/>
	<path fill="#2D2D2D" d="M285.871,7.501h8.985v39.228c0,6.824-0.772,12.243-2.316,16.256c-1.544,4.014-4.33,7.279-8.359,9.795
		c-4.029,2.517-9.317,3.774-15.862,3.774c-6.361,0-11.563-1.096-15.608-3.288s-6.932-5.365-8.661-9.518
		c-1.729-4.152-2.593-9.826-2.593-17.021V7.501h8.984v39.182c0,5.898,0.548,10.244,1.645,13.038c1.096,2.794,2.979,4.948,5.65,6.461
		c2.67,1.513,5.936,2.269,9.795,2.269c6.607,0,11.316-1.497,14.126-4.492c2.81-2.995,4.215-8.753,4.215-17.275V7.501z"/>
	<path fill="#2D2D2D" d="M319.485,75.397V7.501h49.093v8.012H328.47v20.795h37.561v7.966H328.47v23.111h41.683v8.012H319.485z"/>
	<path fill="#2D2D2D" d="M391.68,75.397V7.501h8.984v59.884h33.439v8.012H391.68z"/>
</g>
<g>
</g>
<g>
</g>
<g>
</g>
<g>
</g>
<g>
</g>
<g>
</g>
<g>
</g>
<g>
</g>
<g>
</g>
<g>
</g>
<g>
</g>
<g>
</g>
<g>
</g>
<g>
</g>
<g>
</g>
</svg>
